<svg width="197" height="49" viewBox="0 0 197 49" fill="none" xmlns="http://www.w3.org/2000/svg">
<path d="M74.55 15.625C76.4 15.625 78.0167 15.9833 79.4 16.7C80.8 17.4 81.875 18.4167 82.625 19.75C83.3917 21.0667 83.775 22.6083 83.775 24.375C83.775 26.1417 83.3917 27.675 82.625 28.975C81.875 30.275 80.8 31.275 79.4 31.975C78.0167 32.6583 76.4 33 74.55 33H68.875V15.625H74.55ZM74.55 30.675C76.5833 30.675 78.1417 30.125 79.225 29.025C80.3083 27.925 80.85 26.375 80.85 24.375C80.85 22.3583 80.3083 20.7833 79.225 19.65C78.1417 18.5167 76.5833 17.95 74.55 17.95H71.725V30.675H74.55ZM93.5746 33.175C92.4079 33.175 91.3579 32.975 90.4246 32.575C89.4913 32.1583 88.7579 31.575 88.2246 30.825C87.6913 30.075 87.4246 29.2 87.4246 28.2H90.4746C90.5413 28.95 90.8329 29.5667 91.3496 30.05C91.8829 30.5333 92.6246 30.775 93.5746 30.775C94.5579 30.775 95.3246 30.5417 95.8746 30.075C96.4246 29.5917 96.6996 28.975 96.6996 28.225C96.6996 27.6417 96.5246 27.1667 96.1746 26.8C95.8413 26.4333 95.4163 26.15 94.8996 25.95C94.3996 25.75 93.6996 25.5333 92.7996 25.3C91.6663 25 90.7413 24.7 90.0246 24.4C89.3246 24.0833 88.7246 23.6 88.2246 22.95C87.7246 22.3 87.4746 21.4333 87.4746 20.35C87.4746 19.35 87.7246 18.475 88.2246 17.725C88.7246 16.975 89.4246 16.4 90.3246 16C91.2246 15.6 92.2663 15.4 93.4496 15.4C95.1329 15.4 96.5079 15.825 97.5746 16.675C98.6579 17.5083 99.2579 18.6583 99.3746 20.125H96.2246C96.1746 19.4917 95.8746 18.95 95.3246 18.5C94.7746 18.05 94.0496 17.825 93.1496 17.825C92.3329 17.825 91.6663 18.0333 91.1496 18.45C90.6329 18.8667 90.3746 19.4667 90.3746 20.25C90.3746 20.7833 90.5329 21.225 90.8496 21.575C91.1829 21.9083 91.5996 22.175 92.0996 22.375C92.5996 22.575 93.2829 22.7917 94.1496 23.025C95.2996 23.3417 96.2329 23.6583 96.9496 23.975C97.6829 24.2917 98.2996 24.7833 98.7996 25.45C99.3163 26.1 99.5746 26.975 99.5746 28.075C99.5746 28.9583 99.3329 29.7917 98.8496 30.575C98.3829 31.3583 97.6913 31.9917 96.7746 32.475C95.8746 32.9417 94.8079 33.175 93.5746 33.175ZM116.763 20.625C116.313 19.7583 115.688 19.1083 114.888 18.675C114.088 18.225 113.163 18 112.113 18C110.963 18 109.938 18.2583 109.038 18.775C108.138 19.2917 107.429 20.025 106.913 20.975C106.413 21.925 106.163 23.025 106.163 24.275C106.163 25.525 106.413 26.6333 106.913 27.6C107.429 28.55 108.138 29.2833 109.038 29.8C109.938 30.3167 110.963 30.575 112.113 30.575C113.663 30.575 114.921 30.1417 115.888 29.275C116.854 28.4083 117.446 27.2333 117.663 25.75H111.138V23.475H120.713V25.7C120.529 27.05 120.046 28.2917 119.263 29.425C118.496 30.5583 117.488 31.4667 116.238 32.15C115.004 32.8167 113.629 33.15 112.113 33.15C110.479 33.15 108.988 32.775 107.638 32.025C106.288 31.2583 105.213 30.2 104.413 28.85C103.629 27.5 103.238 25.975 103.238 24.275C103.238 22.575 103.629 21.05 104.413 19.7C105.213 18.35 106.288 17.3 107.638 16.55C109.004 15.7833 110.496 15.4 112.113 15.4C113.963 15.4 115.604 15.8583 117.038 16.775C118.488 17.675 119.538 18.9583 120.188 20.625H116.763ZM139.048 33H136.198L127.623 20.025V33H124.773V15.6H127.623L136.198 28.55V15.6H139.048V33ZM156.191 20.8C156.191 21.6833 155.983 22.5167 155.566 23.3C155.149 24.0833 154.483 24.725 153.566 25.225C152.649 25.7083 151.474 25.95 150.041 25.95H146.891V33H144.041V15.625H150.041C151.374 15.625 152.499 15.8583 153.416 16.325C154.349 16.775 155.041 17.3917 155.491 18.175C155.958 18.9583 156.191 19.8333 156.191 20.8ZM150.041 23.625C151.124 23.625 151.933 23.3833 152.466 22.9C152.999 22.4 153.266 21.7 153.266 20.8C153.266 18.9 152.191 17.95 150.041 17.95H146.891V23.625H150.041ZM168.084 33.175C166.468 33.175 164.976 32.8 163.609 32.05C162.259 31.2833 161.184 30.225 160.384 28.875C159.601 27.5083 159.209 25.975 159.209 24.275C159.209 22.575 159.601 21.05 160.384 19.7C161.184 18.35 162.259 17.3 163.609 16.55C164.976 15.7833 166.468 15.4 168.084 15.4C169.718 15.4 171.209 15.7833 172.559 16.55C173.926 17.3 175.001 18.35 175.784 19.7C176.568 21.05 176.959 22.575 176.959 24.275C176.959 25.975 176.568 27.5083 175.784 28.875C175.001 30.225 173.926 31.2833 172.559 32.05C171.209 32.8 169.718 33.175 168.084 33.175ZM168.084 30.7C169.234 30.7 170.259 30.4417 171.159 29.925C172.059 29.3917 172.759 28.6417 173.259 27.675C173.776 26.6917 174.034 25.5583 174.034 24.275C174.034 22.9917 173.776 21.8667 173.259 20.9C172.759 19.9333 172.059 19.1917 171.159 18.675C170.259 18.1583 169.234 17.9 168.084 17.9C166.934 17.9 165.909 18.1583 165.009 18.675C164.109 19.1917 163.401 19.9333 162.884 20.9C162.384 21.8667 162.134 22.9917 162.134 24.275C162.134 25.5583 162.384 26.6917 162.884 27.675C163.401 28.6417 164.109 29.3917 165.009 29.925C165.909 30.4417 166.934 30.7 168.084 30.7ZM186.689 15.625C188.539 15.625 190.155 15.9833 191.539 16.7C192.939 17.4 194.014 18.4167 194.764 19.75C195.53 21.0667 195.914 22.6083 195.914 24.375C195.914 26.1417 195.53 27.675 194.764 28.975C194.014 30.275 192.939 31.275 191.539 31.975C190.155 32.6583 188.539 33 186.689 33H181.014V15.625H186.689ZM186.689 30.675C188.722 30.675 190.28 30.125 191.364 29.025C192.447 27.925 192.989 26.375 192.989 24.375C192.989 22.3583 192.447 20.7833 191.364 19.65C190.28 18.5167 188.722 17.95 186.689 17.95H183.864V30.675H186.689Z" fill="#1C1B1E"/>
<circle cx="24.5" cy="24.5" r="24.5" fill="url(#paint0_linear_582_2)"/>
<path d="M32.875 24.15C32.875 25.9333 32.5083 27.4917 31.775 28.825C31.0583 30.1417 30 31.1667 28.6 31.9C27.2167 32.6333 25.5583 33 23.625 33H17.725V15.35H23.625C25.5583 15.35 27.2167 15.7167 28.6 16.45C30 17.1667 31.0583 18.1833 31.775 19.5C32.5083 20.8167 32.875 22.3667 32.875 24.15ZM23.4 30.425C25.5167 30.425 27.1417 29.875 28.275 28.775C29.4083 27.675 29.975 26.1333 29.975 24.15C29.975 22.1667 29.4083 20.625 28.275 19.525C27.1417 18.425 25.5167 17.875 23.4 17.875H20.575V30.425H23.4Z" fill="white"/>
<defs>
<linearGradient id="paint0_linear_582_2" x1="69" y1="-1.43933e-06" x2="-18.5" y2="54.5" gradientUnits="userSpaceOnUse">
<stop stop-color="#A248D9"/>
<stop offset="1" stop-color="#ECCDFF"/>
</linearGradient>
</defs>
</svg>
