<svg width="197" height="49" viewBox="0 0 197 49" fill="none" xmlns="http://www.w3.org/2000/svg">
<path d="M83.875 24.15C83.875 25.9333 83.5083 27.4917 82.775 28.825C82.0583 30.1417 81 31.1667 79.6 31.9C78.2167 32.6333 76.5583 33 74.625 33H68.725V15.35H74.625C76.5583 15.35 78.2167 15.7167 79.6 16.45C81 17.1667 82.0583 18.1833 82.775 19.5C83.5083 20.8167 83.875 22.3667 83.875 24.15ZM74.4 30.425C76.5167 30.425 78.1417 29.875 79.275 28.775C80.4083 27.675 80.975 26.1333 80.975 24.15C80.975 22.1667 80.4083 20.625 79.275 19.525C78.1417 18.425 76.5167 17.875 74.4 17.875H71.575V30.425H74.4ZM99.5926 28.3C99.5926 29.1667 99.3842 29.975 98.9676 30.725C98.5509 31.4583 97.9176 32.05 97.0676 32.5C96.2176 32.95 95.1759 33.175 93.9426 33.175C92.7426 33.175 91.6676 32.9667 90.7176 32.55C89.7676 32.1167 89.0092 31.5167 88.4426 30.75C87.8759 29.9833 87.5509 29.1 87.4676 28.1H90.5176C90.6009 28.8667 90.9259 29.525 91.4926 30.075C92.0759 30.625 92.8509 30.9 93.8176 30.9C94.6842 30.9 95.3509 30.6667 95.8176 30.2C96.3009 29.7333 96.5426 29.1333 96.5426 28.4C96.5426 27.7667 96.3676 27.25 96.0176 26.85C95.6676 26.4333 95.2342 26.1083 94.7176 25.875C94.2009 25.6417 93.4926 25.375 92.5926 25.075C91.4926 24.725 90.5926 24.375 89.8926 24.025C89.2092 23.675 88.6259 23.1667 88.1426 22.5C87.6592 21.8333 87.4176 20.9583 87.4176 19.875C87.4176 18.925 87.6509 18.0917 88.1176 17.375C88.5842 16.6583 89.2509 16.1083 90.1176 15.725C90.9842 15.325 91.9842 15.125 93.1176 15.125C94.9176 15.125 96.3426 15.5583 97.3926 16.425C98.4592 17.2917 99.0676 18.425 99.2176 19.825H96.1426C96.0259 19.1583 95.7092 18.5917 95.1926 18.125C94.6926 17.6417 94.0009 17.4 93.1176 17.4C92.3176 17.4 91.6759 17.6083 91.1926 18.025C90.7092 18.425 90.4676 19.0083 90.4676 19.775C90.4676 20.375 90.6342 20.875 90.9676 21.275C91.3009 21.6583 91.7176 21.9667 92.2176 22.2C92.7342 22.4167 93.4342 22.675 94.3176 22.975C95.4342 23.325 96.3426 23.6833 97.0426 24.05C97.7592 24.4 98.3592 24.9167 98.8426 25.6C99.3426 26.2833 99.5926 27.1833 99.5926 28.3ZM111.771 15.2C113.871 15.2 115.621 15.7167 117.021 16.75C118.421 17.7833 119.346 19.1917 119.796 20.975H116.796C116.412 20.025 115.779 19.2667 114.896 18.7C114.029 18.1333 112.996 17.85 111.796 17.85C110.696 17.85 109.704 18.1083 108.821 18.625C107.954 19.1417 107.271 19.875 106.771 20.825C106.287 21.775 106.046 22.8917 106.046 24.175C106.046 25.525 106.296 26.6833 106.796 27.65C107.296 28.6167 107.996 29.3583 108.896 29.875C109.812 30.375 110.871 30.625 112.071 30.625C113.537 30.625 114.796 30.175 115.846 29.275C116.896 28.3583 117.529 27.1083 117.746 25.525H111.271V23.425H120.146V26.15C119.946 27.45 119.479 28.6333 118.746 29.7C118.029 30.75 117.071 31.5917 115.871 32.225C114.687 32.8583 113.329 33.175 111.796 33.175C110.079 33.175 108.562 32.7917 107.246 32.025C105.929 31.2583 104.912 30.2 104.196 28.85C103.479 27.4833 103.121 25.925 103.121 24.175C103.121 22.425 103.479 20.875 104.196 19.525C104.912 18.1583 105.921 17.1 107.221 16.35C108.537 15.5833 110.054 15.2 111.771 15.2ZM138.557 33H135.707L127.132 19.975V33H124.282V15.375H127.132L135.707 28.45V15.375H138.557V33ZM146.106 26.15V33H143.256V15.35H149.256C151.29 15.35 152.815 15.8333 153.831 16.8C154.865 17.7667 155.381 19.0917 155.381 20.775C155.381 22.4417 154.856 23.7583 153.806 24.725C152.756 25.675 151.24 26.15 149.256 26.15H146.106ZM148.956 23.825C151.306 23.825 152.481 22.8083 152.481 20.775C152.481 19.775 152.198 19.0167 151.631 18.5C151.081 17.9667 150.19 17.7 148.956 17.7H146.106V23.825H148.956ZM167.305 15.125C168.939 15.125 170.414 15.5083 171.73 16.275C173.064 17.0417 174.105 18.1167 174.855 19.5C175.622 20.8667 176.005 22.4167 176.005 24.15C176.005 25.8833 175.622 27.4417 174.855 28.825C174.105 30.1917 173.064 31.2667 171.73 32.05C170.414 32.8167 168.939 33.2 167.305 33.2C165.655 33.2 164.164 32.8167 162.83 32.05C161.514 31.2667 160.472 30.1917 159.705 28.825C158.939 27.4417 158.555 25.8833 158.555 24.15C158.555 22.4167 158.939 20.8667 159.705 19.5C160.472 18.1167 161.514 17.0417 162.83 16.275C164.164 15.5083 165.655 15.125 167.305 15.125ZM167.305 17.775C166.172 17.775 165.164 18.0333 164.28 18.55C163.397 19.0667 162.705 19.8083 162.205 20.775C161.722 21.7417 161.48 22.8667 161.48 24.15C161.48 25.4333 161.722 26.5583 162.205 27.525C162.705 28.4917 163.397 29.2333 164.28 29.75C165.164 30.2667 166.172 30.525 167.305 30.525C168.422 30.525 169.414 30.2667 170.28 29.75C171.164 29.2333 171.847 28.4917 172.33 27.525C172.83 26.5583 173.08 25.4333 173.08 24.15C173.08 22.8667 172.83 21.7417 172.33 20.775C171.847 19.8083 171.164 19.0667 170.28 18.55C169.414 18.0333 168.422 17.775 167.305 17.775ZM195.281 24.15C195.281 25.9333 194.915 27.4917 194.181 28.825C193.465 30.1417 192.406 31.1667 191.006 31.9C189.623 32.6333 187.965 33 186.031 33H180.131V15.35H186.031C187.965 15.35 189.623 15.7167 191.006 16.45C192.406 17.1667 193.465 18.1833 194.181 19.5C194.915 20.8167 195.281 22.3667 195.281 24.15ZM185.806 30.425C187.923 30.425 189.548 29.875 190.681 28.775C191.815 27.675 192.381 26.1333 192.381 24.15C192.381 22.1667 191.815 20.625 190.681 19.525C189.548 18.425 187.923 17.875 185.806 17.875H182.981V30.425H185.806Z" fill="white"/>
<circle cx="24.5" cy="24.5" r="24.5" fill="url(#paint0_linear_0_66)"/>
<path d="M32.875 24.15C32.875 25.9333 32.5083 27.4917 31.775 28.825C31.0583 30.1417 30 31.1667 28.6 31.9C27.2167 32.6333 25.5583 33 23.625 33H17.725V15.35H23.625C25.5583 15.35 27.2167 15.7167 28.6 16.45C30 17.1667 31.0583 18.1833 31.775 19.5C32.5083 20.8167 32.875 22.3667 32.875 24.15ZM23.4 30.425C25.5167 30.425 27.1417 29.875 28.275 28.775C29.4083 27.675 29.975 26.1333 29.975 24.15C29.975 22.1667 29.4083 20.625 28.275 19.525C27.1417 18.425 25.5167 17.875 23.4 17.875H20.575V30.425H23.4Z" fill="white"/>
<defs>
<linearGradient id="paint0_linear_0_66" x1="69" y1="-1.43933e-06" x2="-18.5" y2="54.5" gradientUnits="userSpaceOnUse">
<stop stop-color="#A248D9"/>
<stop offset="1" stop-color="#ECCDFF"/>
</linearGradient>
</defs>
</svg>
